<?xml version="1.0" encoding="UTF-8" standalone="no"?>
<!DOCTYPE svg PUBLIC "-//W3C//DTD SVG 1.1//EN"
 "http://www.w3.org/Graphics/SVG/1.1/DTD/svg11.dtd">
<!-- Generated by graphviz version 2.38.0 (20140413.2041)
 -->
<!-- Title: %3 Pages: 1 -->
<svg width="571pt" height="98pt"
 viewBox="0.00 0.00 571.00 98.00" xmlns="http://www.w3.org/2000/svg" xmlns:xlink="http://www.w3.org/1999/xlink">
<g id="graph0" class="graph" transform="scale(1 1) rotate(0) translate(4 94)">
<title>%3</title>
<polygon fill="white" stroke="none" points="-4,4 -4,-94 567.004,-94 567.004,4 -4,4"/>
<g id="clust1" class="cluster"><title>clusters</title>
<polygon fill="none" stroke="black" points="8,-8 8,-82 555.004,-82 555.004,-8 8,-8"/>
<text text-anchor="middle" x="281.502" y="-66.8" font-family="Times,serif" font-size="14.00">Big Science</text>
</g>
<!-- Resources -->
<g id="node1" class="node"><title>Resources</title>
<ellipse fill="none" stroke="black" cx="62.4523" cy="-34" rx="46.4046" ry="18"/>
<text text-anchor="middle" x="62.4523" y="-29.8" font-family="Times,serif" font-size="14.00">Resources</text>
</g>
<!-- Speed -->
<g id="node2" class="node"><title>Speed</title>
<ellipse fill="none" stroke="black" cx="176.623" cy="-34" rx="31.9393" ry="18"/>
<text text-anchor="middle" x="176.623" y="-29.8" font-family="Times,serif" font-size="14.00">Speed</text>
</g>
<!-- Resources&#45;&gt;Speed -->
<g id="edge1" class="edge"><title>Resources&#45;&gt;Speed</title>
<path fill="none" stroke="black" d="M109.077,-34C117.521,-34 126.293,-34 134.591,-34"/>
<polygon fill="black" stroke="black" points="134.787,-37.5001 144.787,-34 134.787,-30.5001 134.787,-37.5001"/>
</g>
<!-- Constraints -->
<g id="node3" class="node"><title>Constraints</title>
<ellipse fill="none" stroke="black" cx="294.737" cy="-34" rx="50.2896" ry="18"/>
<text text-anchor="middle" x="294.737" y="-29.8" font-family="Times,serif" font-size="14.00">Constraints</text>
</g>
<!-- Speed&#45;&gt;Constraints -->
<g id="edge2" class="edge"><title>Speed&#45;&gt;Constraints</title>
<path fill="none" stroke="black" d="M208.435,-34C216.258,-34 224.934,-34 233.672,-34"/>
<polygon fill="black" stroke="black" points="233.909,-37.5001 243.909,-34 233.909,-30.5001 233.909,-37.5001"/>
</g>
<!-- Truth -->
<g id="node4" class="node"><title>Truth</title>
<ellipse fill="none" stroke="black" cx="410.579" cy="-34" rx="29.3953" ry="18"/>
<text text-anchor="middle" x="410.579" y="-29.8" font-family="Times,serif" font-size="14.00">Truth</text>
</g>
<!-- Constraints&#45;&gt;Truth -->
<g id="edge3" class="edge"><title>Constraints&#45;&gt;Truth</title>
<path fill="none" stroke="black" d="M345.339,-34C353.933,-34 362.754,-34 371,-34"/>
<polygon fill="black" stroke="black" points="371.077,-37.5001 381.077,-34 371.077,-30.5001 371.077,-37.5001"/>
</g>
<!-- Energy -->
<g id="node5" class="node"><title>Energy</title>
<ellipse fill="none" stroke="black" cx="511.515" cy="-34" rx="35.4772" ry="18"/>
<text text-anchor="middle" x="511.515" y="-29.8" font-family="Times,serif" font-size="14.00">Energy</text>
</g>
<!-- Truth&#45;&gt;Energy -->
<g id="edge4" class="edge"><title>Truth&#45;&gt;Energy</title>
<path fill="none" stroke="black" d="M440.196,-34C448.235,-34 457.174,-34 465.909,-34"/>
<polygon fill="black" stroke="black" points="466.004,-37.5001 476.004,-34 466.003,-30.5001 466.004,-37.5001"/>
</g>
</g>
</svg>
