<?xml version="1.0" encoding="UTF-8" standalone="no"?>
<!DOCTYPE svg PUBLIC "-//W3C//DTD SVG 1.1//EN"
 "http://www.w3.org/Graphics/SVG/1.1/DTD/svg11.dtd">
<!-- Generated by graphviz version 2.38.0 (20140413.2041)
 -->
<!-- Title: %3 Pages: 1 -->
<svg width="349pt" height="67pt"
 viewBox="0.00 0.00 348.83 67.00" xmlns="http://www.w3.org/2000/svg" xmlns:xlink="http://www.w3.org/1999/xlink">
<g id="graph0" class="graph" transform="scale(1 1) rotate(0) translate(4 63)">
<title>%3</title>
<polygon fill="white" stroke="none" points="-4,4 -4,-63 344.834,-63 344.834,4 -4,4"/>
<!-- readable -->
<g id="node1" class="node"><title>readable</title>
<ellipse fill="none" stroke="black" cx="40.0528" cy="-18" rx="40.1057" ry="18"/>
<text text-anchor="middle" x="40.0528" y="-13.8" font-family="Times,serif" font-size="14.00">readable</text>
</g>
<!-- reusable -->
<g id="node2" class="node"><title>reusable</title>
<ellipse fill="none" stroke="black" cx="155.675" cy="-41" rx="39.6385" ry="18"/>
<text text-anchor="middle" x="155.675" y="-36.8" font-family="Times,serif" font-size="14.00">reusable</text>
</g>
<!-- readable&#45;&gt;reusable -->
<g id="edge1" class="edge"><title>readable&#45;&gt;reusable</title>
<path fill="none" stroke="black" d="M77.0036,-25.2773C87.2516,-27.3518 98.5512,-29.6391 109.284,-31.8117"/>
<polygon fill="black" stroke="black" points="108.851,-35.2951 119.347,-33.8487 110.24,-28.4342 108.851,-35.2951"/>
</g>
<!-- reproducible -->
<g id="node3" class="node"><title>reproducible</title>
<ellipse fill="none" stroke="black" cx="286.039" cy="-18" rx="54.5904" ry="18"/>
<text text-anchor="middle" x="286.039" y="-13.8" font-family="Times,serif" font-size="14.00">reproducible</text>
</g>
<!-- reusable&#45;&gt;reproducible -->
<g id="edge2" class="edge"><title>reusable&#45;&gt;reproducible</title>
<path fill="none" stroke="black" d="M192.773,-34.532C203.664,-32.5805 215.9,-30.3882 227.812,-28.2538"/>
<polygon fill="black" stroke="black" points="228.479,-31.6901 237.705,-26.4812 227.245,-24.7998 228.479,-31.6901"/>
</g>
<!-- reproducible&#45;&gt;readable -->
<g id="edge3" class="edge"><title>reproducible&#45;&gt;readable</title>
<path fill="none" stroke="black" d="M231.873,-15.2398C219.832,-14.7237 207.101,-14.264 195.244,-14 160.08,-13.2172 151.266,-13.0637 116.106,-14 107.668,-14.2247 98.7022,-14.5912 90.0142,-15.0136"/>
<polygon fill="black" stroke="black" points="89.7976,-11.52 79.9909,-15.5299 90.1578,-18.5107 89.7976,-11.52"/>
</g>
</g>
</svg>
