<?xml version="1.0" encoding="UTF-8" standalone="no"?>
<!DOCTYPE svg PUBLIC "-//W3C//DTD SVG 1.1//EN"
 "http://www.w3.org/Graphics/SVG/1.1/DTD/svg11.dtd">
<!-- Generated by graphviz version 2.40.1 (20161225.0304)
 -->
<!-- Title: %3 Pages: 1 -->
<svg width="608pt" height="101pt"
 viewBox="0.00 0.00 607.59 101.00" xmlns="http://www.w3.org/2000/svg" xmlns:xlink="http://www.w3.org/1999/xlink">
<g id="graph0" class="graph" transform="scale(1 1) rotate(0) translate(4 97)">
<title>%3</title>
<polygon fill="#ffffff" stroke="transparent" points="-4,4 -4,-97 603.59,-97 603.59,4 -4,4"/>
<g id="clust1" class="cluster">
<title>clusters</title>
<polygon fill="none" stroke="#000000" points="8,-8 8,-85 591.59,-85 591.59,-8 8,-8"/>
<text text-anchor="middle" x="299.795" y="-68.4" font-family="Times,serif" font-size="14.00" fill="#000000">Big Science</text>
</g>
<!-- Resources -->
<g id="node1" class="node">
<title>Resources</title>
<ellipse fill="none" stroke="#000000" cx="66.7198" cy="-34" rx="50.9405" ry="18"/>
<text text-anchor="middle" x="66.7198" y="-29.8" font-family="Times,serif" font-size="14.00" fill="#000000">Resources</text>
</g>
<!-- Speed -->
<g id="node2" class="node">
<title>Speed</title>
<ellipse fill="none" stroke="#000000" cx="188.0748" cy="-34" rx="34.7709" ry="18"/>
<text text-anchor="middle" x="188.0748" y="-29.8" font-family="Times,serif" font-size="14.00" fill="#000000">Speed</text>
</g>
<!-- Resources&#45;&gt;Speed -->
<g id="edge1" class="edge">
<title>Resources&#45;&gt;Speed</title>
<path fill="none" stroke="#000000" d="M117.4821,-34C126.0707,-34 134.9317,-34 143.3516,-34"/>
<polygon fill="#000000" stroke="#000000" points="143.3552,-37.5001 153.3551,-34 143.3551,-30.5001 143.3552,-37.5001"/>
</g>
<!-- Constraints -->
<g id="node3" class="node">
<title>Constraints</title>
<ellipse fill="none" stroke="#000000" cx="313.7358" cy="-34" rx="55.0517" ry="18"/>
<text text-anchor="middle" x="313.7358" y="-29.8" font-family="Times,serif" font-size="14.00" fill="#000000">Constraints</text>
</g>
<!-- Speed&#45;&gt;Constraints -->
<g id="edge2" class="edge">
<title>Speed&#45;&gt;Constraints</title>
<path fill="none" stroke="#000000" d="M222.7448,-34C230.6814,-34 239.3739,-34 248.1383,-34"/>
<polygon fill="#000000" stroke="#000000" points="248.419,-37.5001 258.419,-34 248.419,-30.5001 248.419,-37.5001"/>
</g>
<!-- Truth -->
<g id="node4" class="node">
<title>Truth</title>
<ellipse fill="none" stroke="#000000" cx="437.2529" cy="-34" rx="32.4827" ry="18"/>
<text text-anchor="middle" x="437.2529" y="-29.8" font-family="Times,serif" font-size="14.00" fill="#000000">Truth</text>
</g>
<!-- Constraints&#45;&gt;Truth -->
<g id="edge3" class="edge">
<title>Constraints&#45;&gt;Truth</title>
<path fill="none" stroke="#000000" d="M368.9915,-34C377.5726,-34 386.323,-34 394.5701,-34"/>
<polygon fill="#000000" stroke="#000000" points="394.6968,-37.5001 404.6968,-34 394.6967,-30.5001 394.6968,-37.5001"/>
</g>
<!-- Energy -->
<g id="node5" class="node">
<title>Energy</title>
<ellipse fill="none" stroke="#000000" cx="544.6671" cy="-34" rx="38.8459" ry="18"/>
<text text-anchor="middle" x="544.6671" y="-29.8" font-family="Times,serif" font-size="14.00" fill="#000000">Energy</text>
</g>
<!-- Truth&#45;&gt;Energy -->
<g id="edge4" class="edge">
<title>Truth&#45;&gt;Energy</title>
<path fill="none" stroke="#000000" d="M469.7722,-34C477.8496,-34 486.6884,-34 495.3724,-34"/>
<polygon fill="#000000" stroke="#000000" points="495.4406,-37.5001 505.4405,-34 495.4405,-30.5001 495.4406,-37.5001"/>
</g>
</g>
</svg>
