<?xml version="1.0" encoding="UTF-8" standalone="no"?>
<!DOCTYPE svg PUBLIC "-//W3C//DTD SVG 1.1//EN"
 "http://www.w3.org/Graphics/SVG/1.1/DTD/svg11.dtd">
<!-- Generated by graphviz version 2.40.1 (20161225.0304)
 -->
<!-- Title: %3 Pages: 1 -->
<svg width="374pt" height="67pt"
 viewBox="0.00 0.00 373.56 67.00" xmlns="http://www.w3.org/2000/svg" xmlns:xlink="http://www.w3.org/1999/xlink">
<g id="graph0" class="graph" transform="scale(1 1) rotate(0) translate(4 63)">
<title>%3</title>
<polygon fill="#ffffff" stroke="transparent" points="-4,4 -4,-63 369.5648,-63 369.5648,4 -4,4"/>
<!-- readable -->
<g id="node1" class="node">
<title>readable</title>
<ellipse fill="none" stroke="#000000" cx="43.7388" cy="-18" rx="43.9789" ry="18"/>
<text text-anchor="middle" x="43.7388" y="-13.8" font-family="Times,serif" font-size="14.00" fill="#000000">readable</text>
</g>
<!-- reusable -->
<g id="node2" class="node">
<title>reusable</title>
<ellipse fill="none" stroke="#000000" cx="166.6852" cy="-41" rx="43.4163" ry="18"/>
<text text-anchor="middle" x="166.6852" y="-36.8" font-family="Times,serif" font-size="14.00" fill="#000000">reusable</text>
</g>
<!-- readable&#45;&gt;reusable -->
<g id="edge1" class="edge">
<title>readable&#45;&gt;reusable</title>
<path fill="none" stroke="#000000" d="M83.656,-25.4674C94.2852,-27.4559 105.8988,-29.6285 116.9822,-31.7019"/>
<polygon fill="#000000" stroke="#000000" points="116.4952,-35.1714 126.9683,-33.57 117.7825,-28.2908 116.4952,-35.1714"/>
</g>
<!-- reproducible -->
<g id="node3" class="node">
<title>reproducible</title>
<ellipse fill="none" stroke="#000000" cx="305.7288" cy="-18" rx="59.6723" ry="18"/>
<text text-anchor="middle" x="305.7288" y="-13.8" font-family="Times,serif" font-size="14.00" fill="#000000">reproducible</text>
</g>
<!-- reusable&#45;&gt;reproducible -->
<g id="edge2" class="edge">
<title>reusable&#45;&gt;reproducible</title>
<path fill="none" stroke="#000000" d="M206.9024,-34.3474C218.1812,-32.4818 230.7195,-30.4077 242.9747,-28.3805"/>
<polygon fill="#000000" stroke="#000000" points="243.8739,-31.7794 253.1686,-26.6943 242.7314,-24.8733 243.8739,-31.7794"/>
</g>
<!-- reproducible&#45;&gt;readable -->
<g id="edge3" class="edge">
<title>reproducible&#45;&gt;readable</title>
<path fill="none" stroke="#000000" d="M246.4385,-15.1387C234.3493,-14.6641 221.7137,-14.2466 209.8929,-14 171.4944,-13.199 161.8723,-13.0376 123.4776,-14 115.0121,-14.2122 106.0458,-14.5509 97.2998,-14.9437"/>
<polygon fill="#000000" stroke="#000000" points="96.9997,-11.4539 87.1773,-15.4253 97.3324,-18.446 96.9997,-11.4539"/>
</g>
</g>
</svg>
