<?xml version="1.0" encoding="UTF-8" standalone="no"?>
<!DOCTYPE svg PUBLIC "-//W3C//DTD SVG 1.1//EN"
 "http://www.w3.org/Graphics/SVG/1.1/DTD/svg11.dtd">
<!-- Generated by graphviz version 2.40.1 (20161225.0304)
 -->
<!-- Title: %3 Pages: 1 -->
<svg width="550pt" height="223pt"
 viewBox="0.00 0.00 550.35 223.00" xmlns="http://www.w3.org/2000/svg" xmlns:xlink="http://www.w3.org/1999/xlink">
<g id="graph0" class="graph" transform="scale(1 1) rotate(0) translate(4 219)">
<title>%3</title>
<polygon fill="#ffffff" stroke="transparent" points="-4,4 -4,-219 546.3467,-219 546.3467,4 -4,4"/>
<g id="clust1" class="cluster">
<title>clusterservices</title>
<polygon fill="none" stroke="#000000" points="324.4727,-34 324.4727,-111 534.3467,-111 534.3467,-34 324.4727,-34"/>
<text text-anchor="middle" x="429.4097" y="-94.4" font-family="Times,serif" font-size="14.00" fill="#000000">services</text>
</g>
<g id="clust2" class="cluster">
<title>clusterlang</title>
<polygon fill="none" stroke="#000000" points="164.7477,-22 164.7477,-207 304.4727,-207 304.4727,-22 164.7477,-22"/>
<text text-anchor="middle" x="234.6102" y="-190.4" font-family="Times,serif" font-size="14.00" fill="#000000">interpretted languages</text>
</g>
<g id="clust3" class="cluster">
<title>clusternb</title>
<polygon fill="none" stroke="#000000" points="8,-8 8,-193 144.7477,-193 144.7477,-8 8,-8"/>
<text text-anchor="middle" x="76.3738" y="-176.4" font-family="Times,serif" font-size="14.00" fill="#000000">modern notebooks</text>
</g>
<!-- ipython -->
<g id="node1" class="node">
<title>ipython</title>
<ellipse fill="none" stroke="#000000" cx="373.0189" cy="-60" rx="40.5925" ry="18"/>
<text text-anchor="middle" x="373.0189" y="-55.8" font-family="Times,serif" font-size="14.00" fill="#000000">ipython</text>
</g>
<!-- jupyter -->
<g id="node2" class="node">
<title>jupyter</title>
<ellipse fill="none" stroke="#000000" cx="487.9559" cy="-60" rx="38.2818" ry="18"/>
<text text-anchor="middle" x="487.9559" y="-55.8" font-family="Times,serif" font-size="14.00" fill="#000000">jupyter</text>
</g>
<!-- ipython&#45;&gt;jupyter -->
<g id="edge1" class="edge">
<title>ipython&#45;&gt;jupyter</title>
<path fill="none" stroke="#000000" d="M413.865,-60C422.1221,-60 430.88,-60 439.3727,-60"/>
<polygon fill="#000000" stroke="#000000" points="439.5488,-63.5001 449.5487,-60 439.5487,-56.5001 439.5488,-63.5001"/>
</g>
<!-- julia -->
<g id="node3" class="node">
<title>julia</title>
<ellipse fill="none" stroke="#000000" cx="234.6102" cy="-156" rx="28.4069" ry="18"/>
<text text-anchor="middle" x="234.6102" y="-151.8" font-family="Times,serif" font-size="14.00" fill="#000000">julia</text>
</g>
<!-- julia&#45;&gt;jupyter -->
<g id="edge5" class="edge">
<title>julia&#45;&gt;jupyter</title>
<path fill="none" stroke="#000000" d="M261.7986,-150.8953C297.5905,-143.6213 362.01,-128.5996 413.5651,-106 429.0456,-99.214 445.1284,-89.6324 458.363,-80.9693"/>
<polygon fill="#000000" stroke="#000000" points="460.6681,-83.6379 467.0279,-75.1641 456.7719,-77.8224 460.6681,-83.6379"/>
</g>
<!-- r -->
<g id="node4" class="node">
<title>r</title>
<ellipse fill="none" stroke="#000000" cx="234.6102" cy="-102" rx="27" ry="18"/>
<text text-anchor="middle" x="234.6102" y="-97.8" font-family="Times,serif" font-size="14.00" fill="#000000">r</text>
</g>
<!-- r&#45;&gt;jupyter -->
<g id="edge6" class="edge">
<title>r&#45;&gt;jupyter</title>
<path fill="none" stroke="#000000" d="M261.62,-101.9459C296.946,-101.3745 360.5756,-98.6212 413.5651,-87 425.7274,-84.3327 438.6013,-80.1702 450.1587,-75.9055"/>
<polygon fill="#000000" stroke="#000000" points="451.4219,-79.1697 459.5129,-72.3296 448.9223,-72.6312 451.4219,-79.1697"/>
</g>
<!-- python -->
<g id="node5" class="node">
<title>python</title>
<ellipse fill="none" stroke="#000000" cx="234.6102" cy="-48" rx="37.7256" ry="18"/>
<text text-anchor="middle" x="234.6102" y="-43.8" font-family="Times,serif" font-size="14.00" fill="#000000">python</text>
</g>
<!-- python&#45;&gt;ipython -->
<g id="edge7" class="edge">
<title>python&#45;&gt;ipython</title>
<path fill="none" stroke="#000000" d="M272.0656,-51.2474C287.7122,-52.6039 306.1232,-54.2002 322.9084,-55.6554"/>
<polygon fill="#000000" stroke="#000000" points="322.8452,-59.163 333.1102,-56.5399 323.4499,-52.1892 322.8452,-59.163"/>
</g>
<!-- python&#45;&gt;jupyter -->
<g id="edge4" class="edge">
<title>python&#45;&gt;jupyter</title>
<path fill="none" stroke="#000000" d="M268.8197,-39.9471C305.0106,-32.634 363.6674,-24.2249 413.5651,-33 426.0397,-35.1938 439.1767,-39.3089 450.8814,-43.677"/>
<polygon fill="#000000" stroke="#000000" points="449.7424,-46.9896 460.3305,-47.3692 452.2901,-40.4697 449.7424,-46.9896"/>
</g>
<!-- maple -->
<g id="node6" class="node">
<title>maple</title>
<ellipse fill="none" stroke="#000000" cx="76.3738" cy="-142" rx="34.769" ry="18"/>
<text text-anchor="middle" x="76.3738" y="-137.8" font-family="Times,serif" font-size="14.00" fill="#000000">maple</text>
</g>
<!-- mathematica -->
<g id="node7" class="node">
<title>mathematica</title>
<ellipse fill="none" stroke="#000000" cx="76.3738" cy="-88" rx="60.2479" ry="18"/>
<text text-anchor="middle" x="76.3738" y="-83.8" font-family="Times,serif" font-size="14.00" fill="#000000">mathematica</text>
</g>
<!-- mathematica&#45;&gt;python -->
<g id="edge2" class="edge">
<title>mathematica&#45;&gt;python</title>
<path fill="none" stroke="#000000" d="M122.5677,-76.3228C144.1453,-70.8683 169.6994,-64.4086 190.9504,-59.0366"/>
<polygon fill="#000000" stroke="#000000" points="191.8531,-62.4186 200.6903,-56.5745 190.1375,-55.6321 191.8531,-62.4186"/>
</g>
<!-- sage -->
<g id="node8" class="node">
<title>sage</title>
<ellipse fill="none" stroke="#000000" cx="76.3738" cy="-34" rx="28.3893" ry="18"/>
<text text-anchor="middle" x="76.3738" y="-29.8" font-family="Times,serif" font-size="14.00" fill="#000000">sage</text>
</g>
<!-- sage&#45;&gt;python -->
<g id="edge3" class="edge">
<title>sage&#45;&gt;python</title>
<path fill="none" stroke="#000000" d="M104.6633,-36.5029C127.6014,-38.5324 160.4244,-41.4364 187.3427,-43.818"/>
<polygon fill="#000000" stroke="#000000" points="187.0678,-47.3073 197.3374,-44.7023 187.6848,-40.3345 187.0678,-47.3073"/>
</g>
</g>
</svg>
