<?xml version="1.0" encoding="UTF-8" standalone="no"?>
<!DOCTYPE svg PUBLIC "-//W3C//DTD SVG 1.1//EN"
 "http://www.w3.org/Graphics/SVG/1.1/DTD/svg11.dtd">
<!-- Generated by graphviz version 2.38.0 (20140413.2041)
 -->
<!-- Title: %3 Pages: 1 -->
<svg width="240pt" height="98pt"
 viewBox="0.00 0.00 239.68 98.00" xmlns="http://www.w3.org/2000/svg" xmlns:xlink="http://www.w3.org/1999/xlink">
<g id="graph0" class="graph" transform="scale(1 1) rotate(0) translate(4 94)">
<title>%3</title>
<polygon fill="white" stroke="none" points="-4,4 -4,-94 235.68,-94 235.68,4 -4,4"/>
<!-- Ipython v3 -->
<g id="node1" class="node"><title>Ipython v3</title>
<ellipse fill="none" stroke="black" cx="48.6718" cy="-45" rx="48.8441" ry="18"/>
<text text-anchor="middle" x="48.6718" y="-40.8" font-family="Times,serif" font-size="14.00">Ipython v3</text>
</g>
<!-- IPython v4 -->
<g id="node2" class="node"><title>IPython v4</title>
<ellipse fill="none" stroke="black" cx="182.512" cy="-72" rx="49.3373" ry="18"/>
<text text-anchor="middle" x="182.512" y="-67.8" font-family="Times,serif" font-size="14.00">IPython v4</text>
</g>
<!-- Ipython v3&#45;&gt;IPython v4 -->
<g id="edge1" class="edge"><title>Ipython v3&#45;&gt;IPython v4</title>
<path fill="none" stroke="black" d="M91.7493,-53.6172C103.524,-56.0286 116.472,-58.6803 128.78,-61.2009"/>
<polygon fill="black" stroke="black" points="128.43,-64.7018 138.929,-63.2793 129.835,-57.8441 128.43,-64.7018"/>
</g>
<!-- Jupyter v4 -->
<g id="node3" class="node"><title>Jupyter v4</title>
<ellipse fill="none" stroke="black" cx="182.512" cy="-18" rx="47.3907" ry="18"/>
<text text-anchor="middle" x="182.512" y="-13.8" font-family="Times,serif" font-size="14.00">Jupyter v4</text>
</g>
<!-- Ipython v3&#45;&gt;Jupyter v4 -->
<g id="edge2" class="edge"><title>Ipython v3&#45;&gt;Jupyter v4</title>
<path fill="none" stroke="black" d="M91.7493,-36.3828C103.999,-33.8742 117.518,-31.1056 130.265,-28.495"/>
<polygon fill="black" stroke="black" points="131.19,-31.8784 140.284,-26.4432 129.785,-25.0207 131.19,-31.8784"/>
</g>
</g>
</svg>
