<?xml version="1.0" encoding="UTF-8" standalone="no"?>
<!DOCTYPE svg PUBLIC "-//W3C//DTD SVG 1.1//EN"
 "http://www.w3.org/Graphics/SVG/1.1/DTD/svg11.dtd">
<!-- Generated by graphviz version 2.38.0 (20140413.2041)
 -->
<!-- Title: %3 Pages: 1 -->
<svg width="526pt" height="233pt"
 viewBox="0.00 0.00 526.48 233.00" xmlns="http://www.w3.org/2000/svg" xmlns:xlink="http://www.w3.org/1999/xlink">
<g id="graph0" class="graph" transform="scale(1 1) rotate(0) translate(4 229)">
<title>%3</title>
<polygon fill="white" stroke="none" points="-4,4 -4,-229 522.482,-229 522.482,4 -4,4"/>
<g id="clust1" class="cluster"><title>clusterservices</title>
<polygon fill="none" stroke="black" points="313.911,-47 313.911,-121 510.482,-121 510.482,-47 313.911,-47"/>
<text text-anchor="middle" x="412.196" y="-105.8" font-family="Times,serif" font-size="14.00">services</text>
</g>
<g id="clust2" class="cluster"><title>clusterlang</title>
<polygon fill="none" stroke="black" points="154.566,-35 154.566,-217 293.911,-217 293.911,-35 154.566,-35"/>
<text text-anchor="middle" x="224.238" y="-201.8" font-family="Times,serif" font-size="14.00">interpretted languages</text>
</g>
<g id="clust3" class="cluster"><title>clusternb</title>
<polygon fill="none" stroke="black" points="8,-8 8,-190 134.566,-190 134.566,-8 8,-8"/>
<text text-anchor="middle" x="71.2828" y="-174.8" font-family="Times,serif" font-size="14.00">modern notebooks</text>
</g>
<!-- ipython -->
<g id="node1" class="node"><title>ipython</title>
<ellipse fill="none" stroke="black" cx="359.04" cy="-73" rx="37.2594" ry="18"/>
<text text-anchor="middle" x="359.04" y="-68.8" font-family="Times,serif" font-size="14.00">ipython</text>
</g>
<!-- jupyter -->
<g id="node2" class="node"><title>jupyter</title>
<ellipse fill="none" stroke="black" cx="467.326" cy="-73" rx="35.3129" ry="18"/>
<text text-anchor="middle" x="467.326" y="-68.8" font-family="Times,serif" font-size="14.00">jupyter</text>
</g>
<!-- ipython&#45;&gt;jupyter -->
<g id="edge1" class="edge"><title>ipython&#45;&gt;jupyter</title>
<path fill="none" stroke="black" d="M396.32,-73C404.529,-73 413.336,-73 421.84,-73"/>
<polygon fill="black" stroke="black" points="422.001,-76.5001 432.001,-73 422.001,-69.5001 422.001,-76.5001"/>
</g>
<!-- julia -->
<g id="node3" class="node"><title>julia</title>
<ellipse fill="none" stroke="black" cx="224.238" cy="-169" rx="27" ry="18"/>
<text text-anchor="middle" x="224.238" y="-164.8" font-family="Times,serif" font-size="14.00">julia</text>
</g>
<!-- julia&#45;&gt;jupyter -->
<g id="edge5" class="edge"><title>julia&#45;&gt;jupyter</title>
<path fill="none" stroke="black" d="M250.446,-164.339C284.578,-157.462 346.89,-142.883 396.169,-120 411.187,-113.027 426.608,-103.059 439.154,-94.0958"/>
<polygon fill="black" stroke="black" points="441.341,-96.8327 447.34,-88.1002 437.204,-91.1853 441.341,-96.8327"/>
</g>
<!-- r -->
<g id="node4" class="node"><title>r</title>
<ellipse fill="none" stroke="black" cx="224.238" cy="-115" rx="27" ry="18"/>
<text text-anchor="middle" x="224.238" y="-110.8" font-family="Times,serif" font-size="14.00">r</text>
</g>
<!-- r&#45;&gt;jupyter -->
<g id="edge6" class="edge"><title>r&#45;&gt;jupyter</title>
<path fill="none" stroke="black" d="M251.364,-114.962C285.202,-114.402 345.816,-111.655 396.169,-100 407.872,-97.2913 420.228,-93.0403 431.255,-88.7061"/>
<polygon fill="black" stroke="black" points="432.617,-91.9308 440.554,-84.9125 429.972,-85.4494 432.617,-91.9308"/>
</g>
<!-- python -->
<g id="node5" class="node"><title>python</title>
<ellipse fill="none" stroke="black" cx="224.238" cy="-61" rx="34.8458" ry="18"/>
<text text-anchor="middle" x="224.238" y="-56.8" font-family="Times,serif" font-size="14.00">python</text>
</g>
<!-- python&#45;&gt;ipython -->
<g id="edge7" class="edge"><title>python&#45;&gt;ipython</title>
<path fill="none" stroke="black" d="M258.75,-64.0281C274.936,-65.4907 294.611,-67.2686 312.164,-68.8546"/>
<polygon fill="black" stroke="black" points="311.937,-72.3483 322.211,-69.7625 312.567,-65.3767 311.937,-72.3483"/>
</g>
<!-- python&#45;&gt;jupyter -->
<g id="edge4" class="edge"><title>python&#45;&gt;jupyter</title>
<path fill="none" stroke="black" d="M255.736,-53.3925C290.113,-45.9559 347.551,-36.9673 396.169,-46 408.178,-48.231 420.782,-52.4391 431.942,-56.8807"/>
<polygon fill="black" stroke="black" points="430.749,-60.1756 441.326,-60.8001 433.447,-53.7163 430.749,-60.1756"/>
</g>
<!-- maple -->
<g id="node6" class="node"><title>maple</title>
<ellipse fill="none" stroke="black" cx="71.2828" cy="-142" rx="31.9306" ry="18"/>
<text text-anchor="middle" x="71.2828" y="-137.8" font-family="Times,serif" font-size="14.00">maple</text>
</g>
<!-- mathematica -->
<g id="node7" class="node"><title>mathematica</title>
<ellipse fill="none" stroke="black" cx="71.2828" cy="-88" rx="55.0664" ry="18"/>
<text text-anchor="middle" x="71.2828" y="-83.8" font-family="Times,serif" font-size="14.00">mathematica</text>
</g>
<!-- mathematica&#45;&gt;python -->
<g id="edge2" class="edge"><title>mathematica&#45;&gt;python</title>
<path fill="none" stroke="black" d="M120.046,-79.457C139.668,-75.9473 162.193,-71.9186 181.182,-68.5223"/>
<polygon fill="black" stroke="black" points="181.812,-71.9651 191.039,-66.7591 180.579,-65.0745 181.812,-71.9651"/>
</g>
<!-- sage -->
<g id="node8" class="node"><title>sage</title>
<ellipse fill="none" stroke="black" cx="71.2828" cy="-34" rx="27" ry="18"/>
<text text-anchor="middle" x="71.2828" y="-29.8" font-family="Times,serif" font-size="14.00">sage</text>
</g>
<!-- sage&#45;&gt;python -->
<g id="edge3" class="edge"><title>sage&#45;&gt;python</title>
<path fill="none" stroke="black" d="M97.5493,-38.5192C120.398,-42.6059 154.48,-48.702 181.392,-53.5155"/>
<polygon fill="black" stroke="black" points="180.857,-56.9752 191.317,-55.2906 182.09,-50.0846 180.857,-56.9752"/>
</g>
</g>
</svg>
