<?xml version="1.0" encoding="UTF-8" standalone="no"?>
<!DOCTYPE svg PUBLIC "-//W3C//DTD SVG 1.1//EN"
 "http://www.w3.org/Graphics/SVG/1.1/DTD/svg11.dtd">
<!-- Generated by graphviz version 2.40.1 (20161225.0304)
 -->
<!-- Title: %3 Pages: 1 -->
<svg width="550pt" height="236pt"
 viewBox="0.00 0.00 550.35 236.00" xmlns="http://www.w3.org/2000/svg" xmlns:xlink="http://www.w3.org/1999/xlink">
<g id="graph0" class="graph" transform="scale(1 1) rotate(0) translate(4 232)">
<title>%3</title>
<polygon fill="#ffffff" stroke="transparent" points="-4,4 -4,-232 546.3467,-232 546.3467,4 -4,4"/>
<g id="clust1" class="cluster">
<title>clusterservices</title>
<polygon fill="none" stroke="#000000" points="324.4727,-43 324.4727,-120 534.3467,-120 534.3467,-43 324.4727,-43"/>
<text text-anchor="middle" x="429.4097" y="-103.4" font-family="Times,serif" font-size="14.00" fill="#000000">services</text>
</g>
<g id="clust2" class="cluster">
<title>clusterlang</title>
<polygon fill="none" stroke="#000000" points="164.7477,-35 164.7477,-220 304.4727,-220 304.4727,-35 164.7477,-35"/>
<text text-anchor="middle" x="234.6102" y="-203.4" font-family="Times,serif" font-size="14.00" fill="#000000">interpretted languages</text>
</g>
<g id="clust3" class="cluster">
<title>clusternb</title>
<polygon fill="none" stroke="#000000" points="8,-8 8,-193 144.7477,-193 144.7477,-8 8,-8"/>
<text text-anchor="middle" x="76.3738" y="-176.4" font-family="Times,serif" font-size="14.00" fill="#000000">modern notebooks</text>
</g>
<!-- ipython -->
<g id="node1" class="node">
<title>ipython</title>
<ellipse fill="none" stroke="#000000" cx="373.0189" cy="-69" rx="40.5925" ry="18"/>
<text text-anchor="middle" x="373.0189" y="-64.8" font-family="Times,serif" font-size="14.00" fill="#000000">ipython</text>
</g>
<!-- jupyter -->
<g id="node2" class="node">
<title>jupyter</title>
<ellipse fill="none" stroke="#000000" cx="487.9559" cy="-69" rx="38.2818" ry="18"/>
<text text-anchor="middle" x="487.9559" y="-64.8" font-family="Times,serif" font-size="14.00" fill="#000000">jupyter</text>
</g>
<!-- ipython&#45;&gt;jupyter -->
<g id="edge1" class="edge">
<title>ipython&#45;&gt;jupyter</title>
<path fill="none" stroke="#000000" d="M413.865,-69C422.1221,-69 430.88,-69 439.3727,-69"/>
<polygon fill="#000000" stroke="#000000" points="439.5488,-72.5001 449.5487,-69 439.5487,-65.5001 439.5488,-72.5001"/>
</g>
<!-- julia -->
<g id="node3" class="node">
<title>julia</title>
<ellipse fill="none" stroke="#000000" cx="234.6102" cy="-169" rx="28.4069" ry="18"/>
<text text-anchor="middle" x="234.6102" y="-164.8" font-family="Times,serif" font-size="14.00" fill="#000000">julia</text>
</g>
<!-- julia&#45;&gt;jupyter -->
<g id="edge4" class="edge">
<title>julia&#45;&gt;jupyter</title>
<path fill="none" stroke="#000000" d="M261.5095,-163.4727C297.2588,-155.5853 361.9217,-139.4167 413.5651,-116 429.3154,-108.8583 445.6826,-98.8423 459.0412,-89.8906"/>
<polygon fill="#000000" stroke="#000000" points="461.0747,-92.7401 467.3486,-84.2026 457.12,-86.9642 461.0747,-92.7401"/>
</g>
<!-- r -->
<g id="node4" class="node">
<title>r</title>
<ellipse fill="none" stroke="#000000" cx="234.6102" cy="-115" rx="27" ry="18"/>
<text text-anchor="middle" x="234.6102" y="-110.8" font-family="Times,serif" font-size="14.00" fill="#000000">r</text>
</g>
<!-- r&#45;&gt;jupyter -->
<g id="edge5" class="edge">
<title>r&#45;&gt;jupyter</title>
<path fill="none" stroke="#000000" d="M261.6264,-114.166C296.9592,-112.6144 360.5963,-108.2331 413.5651,-96 425.6971,-93.1981 438.5622,-88.9964 450.1208,-84.737"/>
<polygon fill="#000000" stroke="#000000" points="451.3775,-88.0038 459.4781,-81.1751 448.8871,-81.4617 451.3775,-88.0038"/>
</g>
<!-- python -->
<g id="node5" class="node">
<title>python</title>
<ellipse fill="none" stroke="#000000" cx="234.6102" cy="-61" rx="37.7256" ry="18"/>
<text text-anchor="middle" x="234.6102" y="-56.8" font-family="Times,serif" font-size="14.00" fill="#000000">python</text>
</g>
<!-- python&#45;&gt;ipython -->
<g id="edge6" class="edge">
<title>python&#45;&gt;ipython</title>
<path fill="none" stroke="#000000" d="M272.431,-63.186C287.8086,-64.0749 305.8091,-65.1153 322.2988,-66.0684"/>
<polygon fill="#000000" stroke="#000000" points="322.1484,-69.5654 332.3337,-66.6484 322.5523,-62.5771 322.1484,-69.5654"/>
</g>
<!-- maple -->
<g id="node6" class="node">
<title>maple</title>
<ellipse fill="none" stroke="#000000" cx="76.3738" cy="-142" rx="34.769" ry="18"/>
<text text-anchor="middle" x="76.3738" y="-137.8" font-family="Times,serif" font-size="14.00" fill="#000000">maple</text>
</g>
<!-- mathematica -->
<g id="node7" class="node">
<title>mathematica</title>
<ellipse fill="none" stroke="#000000" cx="76.3738" cy="-88" rx="60.2479" ry="18"/>
<text text-anchor="middle" x="76.3738" y="-83.8" font-family="Times,serif" font-size="14.00" fill="#000000">mathematica</text>
</g>
<!-- mathematica&#45;&gt;python -->
<g id="edge2" class="edge">
<title>mathematica&#45;&gt;python</title>
<path fill="none" stroke="#000000" d="M129.0643,-79.0094C148.3319,-75.7217 169.962,-72.031 188.601,-68.8506"/>
<polygon fill="#000000" stroke="#000000" points="189.3455,-72.2742 198.6143,-67.142 188.168,-65.374 189.3455,-72.2742"/>
</g>
<!-- sage -->
<g id="node8" class="node">
<title>sage</title>
<ellipse fill="none" stroke="#000000" cx="76.3738" cy="-34" rx="28.3893" ry="18"/>
<text text-anchor="middle" x="76.3738" y="-29.8" font-family="Times,serif" font-size="14.00" fill="#000000">sage</text>
</g>
<!-- sage&#45;&gt;python -->
<g id="edge3" class="edge">
<title>sage&#45;&gt;python</title>
<path fill="none" stroke="#000000" d="M103.9365,-38.703C127.2557,-42.682 161.1584,-48.4669 188.5873,-53.1471"/>
<polygon fill="#000000" stroke="#000000" points="188.3009,-56.6487 198.7472,-54.8807 189.4784,-49.7484 188.3009,-56.6487"/>
</g>
</g>
</svg>
