<?xml version="1.0" encoding="UTF-8" standalone="no"?>
<!DOCTYPE svg PUBLIC "-//W3C//DTD SVG 1.1//EN"
 "http://www.w3.org/Graphics/SVG/1.1/DTD/svg11.dtd">
<!-- Generated by graphviz version 2.40.1 (20161225.0304)
 -->
<!-- Title: %3 Pages: 1 -->
<svg width="258pt" height="98pt"
 viewBox="0.00 0.00 257.67 98.00" xmlns="http://www.w3.org/2000/svg" xmlns:xlink="http://www.w3.org/1999/xlink">
<g id="graph0" class="graph" transform="scale(1 1) rotate(0) translate(4 94)">
<title>%3</title>
<polygon fill="#ffffff" stroke="transparent" points="-4,4 -4,-94 253.6737,-94 253.6737,4 -4,4"/>
<!-- Ipython v3 -->
<g id="node1" class="node">
<title>Ipython v3</title>
<ellipse fill="none" stroke="#000000" cx="53.1485" cy="-45" rx="53.2974" ry="18"/>
<text text-anchor="middle" x="53.1485" y="-40.8" font-family="Times,serif" font-size="14.00" fill="#000000">Ipython v3</text>
</g>
<!-- IPython v4 -->
<g id="node2" class="node">
<title>IPython v4</title>
<ellipse fill="none" stroke="#000000" cx="195.9854" cy="-72" rx="53.8773" ry="18"/>
<text text-anchor="middle" x="195.9854" y="-67.8" font-family="Times,serif" font-size="14.00" fill="#000000">IPython v4</text>
</g>
<!-- Ipython v3&#45;&gt;IPython v4 -->
<g id="edge1" class="edge">
<title>Ipython v3&#45;&gt;IPython v4</title>
<path fill="none" stroke="#000000" d="M99.9186,-53.8408C112.3734,-56.1951 125.968,-58.7648 138.9076,-61.2108"/>
<polygon fill="#000000" stroke="#000000" points="138.6341,-64.721 149.1102,-63.1393 139.9343,-57.8428 138.6341,-64.721"/>
</g>
<!-- Jupyter v4 -->
<g id="node3" class="node">
<title>Jupyter v4</title>
<ellipse fill="none" stroke="#000000" cx="195.9854" cy="-18" rx="51.5678" ry="18"/>
<text text-anchor="middle" x="195.9854" y="-13.8" font-family="Times,serif" font-size="14.00" fill="#000000">Jupyter v4</text>
</g>
<!-- Ipython v3&#45;&gt;Jupyter v4 -->
<g id="edge2" class="edge">
<title>Ipython v3&#45;&gt;Jupyter v4</title>
<path fill="none" stroke="#000000" d="M99.9186,-36.1592C112.8857,-33.7081 127.0883,-31.0234 140.5009,-28.488"/>
<polygon fill="#000000" stroke="#000000" points="141.3942,-31.8813 150.5701,-26.5847 140.094,-25.0031 141.3942,-31.8813"/>
</g>
</g>
</svg>
