<?xml version="1.0" encoding="UTF-8" standalone="no"?>
<!DOCTYPE svg PUBLIC "-//W3C//DTD SVG 1.1//EN"
 "http://www.w3.org/Graphics/SVG/1.1/DTD/svg11.dtd">
<!-- Generated by graphviz version 2.38.0 (20140413.2041)
 -->
<!-- Title: %3 Pages: 1 -->
<svg width="302pt" height="67pt"
 viewBox="0.00 0.00 302.12 67.00" xmlns="http://www.w3.org/2000/svg" xmlns:xlink="http://www.w3.org/1999/xlink">
<g id="graph0" class="graph" transform="scale(1 1) rotate(0) translate(4 63)">
<title>%3</title>
<polygon fill="white" stroke="none" points="-4,4 -4,-63 298.122,-63 298.122,4 -4,4"/>
<!-- data -->
<g id="node1" class="node"><title>data</title>
<ellipse fill="none" stroke="black" cx="27" cy="-18" rx="27" ry="18"/>
<text text-anchor="middle" x="27" y="-13.8" font-family="Times,serif" font-size="14.00">data</text>
</g>
<!-- science -->
<g id="node2" class="node"><title>science</title>
<ellipse fill="none" stroke="black" cx="126.128" cy="-41" rx="36.2558" ry="18"/>
<text text-anchor="middle" x="126.128" y="-36.8" font-family="Times,serif" font-size="14.00">science</text>
</g>
<!-- data&#45;&#45;science -->
<g id="edge1" class="edge"><title>data&#45;&#45;science</title>
<path fill="none" stroke="black" d="M52.7607,-23.8634C65.0132,-26.7648 79.9513,-30.3022 93.0668,-33.4079"/>
</g>
<!-- computing -->
<g id="node3" class="node"><title>computing</title>
<ellipse fill="none" stroke="black" cx="246.189" cy="-18" rx="47.8668" ry="18"/>
<text text-anchor="middle" x="246.189" y="-13.8" font-family="Times,serif" font-size="14.00">computing</text>
</g>
<!-- science&#45;&#45;computing -->
<g id="edge2" class="edge"><title>science&#45;&#45;computing</title>
<path fill="none" stroke="black" d="M160.014,-34.5932C173.387,-31.988 189.003,-28.9457 203.186,-26.1828"/>
</g>
<!-- computing&#45;&#45;data -->
<g id="edge3" class="edge"><title>computing&#45;&#45;data</title>
<path fill="none" stroke="black" d="M198.708,-15.363C186.828,-14.7976 174.072,-14.2848 162.255,-14 130.151,-13.2262 122.097,-12.9657 90,-14 78.1413,-14.3821 65.0265,-15.1744 53.9246,-15.9538"/>
</g>
</g>
</svg>
