<?xml version="1.0" encoding="UTF-8" standalone="no"?>
<!DOCTYPE svg PUBLIC "-//W3C//DTD SVG 1.1//EN"
 "http://www.w3.org/Graphics/SVG/1.1/DTD/svg11.dtd">
<!-- Generated by graphviz version 2.40.1 (20161225.0304)
 -->
<!-- Title: %3 Pages: 1 -->
<svg width="318pt" height="67pt"
 viewBox="0.00 0.00 317.84 67.00" xmlns="http://www.w3.org/2000/svg" xmlns:xlink="http://www.w3.org/1999/xlink">
<g id="graph0" class="graph" transform="scale(1 1) rotate(0) translate(4 63)">
<title>%3</title>
<polygon fill="#ffffff" stroke="transparent" points="-4,4 -4,-63 313.8365,-63 313.8365,4 -4,4"/>
<!-- data -->
<g id="node1" class="node">
<title>data</title>
<ellipse fill="none" stroke="#000000" cx="27.1221" cy="-18" rx="27.2447" ry="18"/>
<text text-anchor="middle" x="27.1221" y="-13.8" font-family="Times,serif" font-size="14.00" fill="#000000">data</text>
</g>
<!-- science -->
<g id="node2" class="node">
<title>science</title>
<ellipse fill="none" stroke="#000000" cx="129.6953" cy="-41" rx="39.4023" ry="18"/>
<text text-anchor="middle" x="129.6953" y="-36.8" font-family="Times,serif" font-size="14.00" fill="#000000">science</text>
</g>
<!-- data&#45;&#45;science -->
<g id="edge1" class="edge">
<title>data&#45;&#45;science</title>
<path fill="none" stroke="#000000" d="M53.0056,-23.8039C65.4688,-26.5985 80.6097,-29.9935 94.135,-33.0263"/>
</g>
<!-- computing -->
<g id="node3" class="node">
<title>computing</title>
<ellipse fill="none" stroke="#000000" cx="257.4914" cy="-18" rx="52.1906" ry="18"/>
<text text-anchor="middle" x="257.4914" y="-13.8" font-family="Times,serif" font-size="14.00" fill="#000000">computing</text>
</g>
<!-- science&#45;&#45;computing -->
<g id="edge2" class="edge">
<title>science&#45;&#45;computing</title>
<path fill="none" stroke="#000000" d="M166.6592,-34.3474C180.518,-31.8532 196.4458,-28.9866 211.0547,-26.3574"/>
</g>
<!-- computing&#45;&#45;data -->
<g id="edge3" class="edge">
<title>computing&#45;&#45;data</title>
<path fill="none" stroke="#000000" d="M205.6512,-15.2602C193.6671,-14.7359 180.9655,-14.2674 169.1464,-14 134.0877,-13.2067 125.2943,-12.8906 90.2442,-14 78.391,-14.3752 65.3045,-15.1457 54.135,-15.9113"/>
</g>
</g>
</svg>
