<?xml version="1.0" encoding="UTF-8" standalone="no"?>
<!DOCTYPE svg PUBLIC "-//W3C//DTD SVG 1.1//EN"
 "http://www.w3.org/Graphics/SVG/1.1/DTD/svg11.dtd">
<!-- Generated by graphviz version 2.38.0 (20140413.2041)
 -->
<!-- Title: %3 Pages: 1 -->
<svg width="307pt" height="118pt"
 viewBox="0.00 0.00 307.01 118.00" xmlns="http://www.w3.org/2000/svg" xmlns:xlink="http://www.w3.org/1999/xlink">
<g id="graph0" class="graph" transform="scale(1 1) rotate(0) translate(4 114)">
<title>%3</title>
<polygon fill="white" stroke="none" points="-4,4 -4,-114 303.006,-114 303.006,4 -4,4"/>
<g id="clust1" class="cluster"><title>cluster</title>
<polygon fill="none" stroke="black" points="8,-8 8,-102 291.006,-102 291.006,-8 8,-8"/>
<text text-anchor="middle" x="149.503" y="-86.8" font-family="Times,serif" font-size="14.00">Research Assets</text>
</g>
<!-- code -->
<g id="node1" class="node"><title>code</title>
<ellipse fill="none" stroke="black" cx="43" cy="-44" rx="27" ry="18"/>
<text text-anchor="middle" x="43" y="-39.8" font-family="Times,serif" font-size="14.00">code</text>
</g>
<!-- data -->
<g id="node2" class="node"><title>data</title>
<ellipse fill="none" stroke="black" cx="133" cy="-34" rx="27" ry="18"/>
<text text-anchor="middle" x="133" y="-29.8" font-family="Times,serif" font-size="14.00">data</text>
</g>
<!-- code&#45;&gt;data -->
<g id="edge1" class="edge"><title>code&#45;&gt;data</title>
<path fill="none" stroke="black" d="M69.9269,-41.0538C78.1623,-40.1179 87.4201,-39.0659 96.2226,-38.0656"/>
<polygon fill="black" stroke="black" points="96.7175,-41.532 106.258,-36.9252 95.9271,-34.5768 96.7175,-41.532"/>
</g>
<!-- machines -->
<g id="node3" class="node"><title>machines</title>
<ellipse fill="none" stroke="black" cx="239.503" cy="-44" rx="43.506" ry="18"/>
<text text-anchor="middle" x="239.503" y="-39.8" font-family="Times,serif" font-size="14.00">machines</text>
</g>
<!-- data&#45;&gt;machines -->
<g id="edge2" class="edge"><title>data&#45;&gt;machines</title>
<path fill="none" stroke="black" d="M159.832,-36.4719C167.999,-37.2534 177.335,-38.1468 186.654,-39.0385"/>
<polygon fill="black" stroke="black" points="186.415,-42.5316 196.703,-40.0001 187.082,-35.5634 186.415,-42.5316"/>
</g>
<!-- machines&#45;&gt;code -->
<g id="edge3" class="edge"><title>machines&#45;&gt;code</title>
<path fill="none" stroke="black" d="M202.418,-53.501C189.178,-56.5387 174.004,-59.501 160,-61 136.136,-63.5543 129.785,-64.2018 106,-61 96.4146,-59.7097 86.2144,-57.345 76.9139,-54.7812"/>
<polygon fill="black" stroke="black" points="77.8267,-51.4016 67.2467,-51.9624 75.8672,-58.1218 77.8267,-51.4016"/>
</g>
</g>
</svg>
