<?xml version="1.0" encoding="UTF-8" standalone="no"?>
<!DOCTYPE svg PUBLIC "-//W3C//DTD SVG 1.1//EN"
 "http://www.w3.org/Graphics/SVG/1.1/DTD/svg11.dtd">
<!-- Generated by graphviz version 2.40.1 (20161225.0304)
 -->
<!-- Title: %3 Pages: 1 -->
<svg width="320pt" height="121pt"
 viewBox="0.00 0.00 319.79 121.00" xmlns="http://www.w3.org/2000/svg" xmlns:xlink="http://www.w3.org/1999/xlink">
<g id="graph0" class="graph" transform="scale(1 1) rotate(0) translate(4 117)">
<title>%3</title>
<polygon fill="#ffffff" stroke="transparent" points="-4,4 -4,-117 315.7879,-117 315.7879,4 -4,4"/>
<g id="clust1" class="cluster">
<title>cluster</title>
<polygon fill="none" stroke="#000000" points="8,-8 8,-105 303.7879,-105 303.7879,-8 8,-8"/>
<text text-anchor="middle" x="155.894" y="-88.4" font-family="Times,serif" font-size="14.00" fill="#000000">Research Assets</text>
</g>
<!-- code -->
<g id="node1" class="node">
<title>code</title>
<ellipse fill="none" stroke="#000000" cx="45.2669" cy="-44" rx="29.0356" ry="18"/>
<text text-anchor="middle" x="45.2669" y="-39.8" font-family="Times,serif" font-size="14.00" fill="#000000">code</text>
</g>
<!-- data -->
<g id="node2" class="node">
<title>data</title>
<ellipse fill="none" stroke="#000000" cx="137.6559" cy="-34" rx="27.2447" ry="18"/>
<text text-anchor="middle" x="137.6559" y="-29.8" font-family="Times,serif" font-size="14.00" fill="#000000">data</text>
</g>
<!-- code&#45;&gt;data -->
<g id="edge1" class="edge">
<title>code&#45;&gt;data</title>
<path fill="none" stroke="#000000" d="M74.2458,-40.8634C82.6137,-39.9577 91.861,-38.9567 100.6465,-38.0058"/>
<polygon fill="#000000" stroke="#000000" points="101.102,-41.477 110.6673,-36.9212 100.3487,-34.5177 101.102,-41.477"/>
</g>
<!-- machines -->
<g id="node3" class="node">
<title>machines</title>
<ellipse fill="none" stroke="#000000" cx="248.2829" cy="-44" rx="47.51" ry="18"/>
<text text-anchor="middle" x="248.2829" y="-39.8" font-family="Times,serif" font-size="14.00" fill="#000000">machines</text>
</g>
<!-- data&#45;&gt;machines -->
<g id="edge2" class="edge">
<title>data&#45;&gt;machines</title>
<path fill="none" stroke="#000000" d="M164.7183,-36.4463C172.892,-37.1851 182.1909,-38.0257 191.544,-38.8712"/>
<polygon fill="#000000" stroke="#000000" points="191.3894,-42.3714 201.6639,-39.7859 192.0197,-35.3998 191.3894,-42.3714"/>
</g>
<!-- machines&#45;&gt;code -->
<g id="edge3" class="edge">
<title>machines&#45;&gt;code</title>
<path fill="none" stroke="#000000" d="M208.7851,-54.1364C181.24,-59.9167 143.6365,-65.2404 110.5338,-61 100.8958,-59.7654 90.6481,-57.5449 81.1988,-55.1074"/>
<polygon fill="#000000" stroke="#000000" points="81.8939,-51.6691 71.3252,-52.4136 80.0514,-58.4223 81.8939,-51.6691"/>
</g>
</g>
</svg>
