<?xml version="1.0" encoding="UTF-8" standalone="no"?>
<!DOCTYPE svg PUBLIC "-//W3C//DTD SVG 1.1//EN"
 "http://www.w3.org/Graphics/SVG/1.1/DTD/svg11.dtd">
<!-- Generated by graphviz version 2.40.1 (20161225.0304)
 -->
<!-- Title: %3 Pages: 1 -->
<svg width="594pt" height="101pt"
 viewBox="0.00 0.00 593.60 101.00" xmlns="http://www.w3.org/2000/svg" xmlns:xlink="http://www.w3.org/1999/xlink">
<g id="graph0" class="graph" transform="scale(1 1) rotate(0) translate(4 97)">
<title>%3</title>
<polygon fill="#ffffff" stroke="transparent" points="-4,4 -4,-97 589.601,-97 589.601,4 -4,4"/>
<g id="clust1" class="cluster">
<title>clusterd</title>
<polygon fill="none" stroke="#000000" points="8,-8 8,-85 577.601,-85 577.601,-8 8,-8"/>
<text text-anchor="middle" x="292.8005" y="-68.4" font-family="Times,serif" font-size="14.00" fill="#000000">Big Data</text>
</g>
<!-- Volume -->
<g id="node1" class="node">
<title>Volume</title>
<ellipse fill="none" stroke="#000000" cx="58.1473" cy="-34" rx="42.2952" ry="18"/>
<text text-anchor="middle" x="58.1473" y="-29.8" font-family="Times,serif" font-size="14.00" fill="#000000">Volume</text>
</g>
<!-- Velocity -->
<g id="node2" class="node">
<title>Velocity</title>
<ellipse fill="none" stroke="#000000" cx="180.5839" cy="-34" rx="44.0795" ry="18"/>
<text text-anchor="middle" x="180.5839" y="-29.8" font-family="Times,serif" font-size="14.00" fill="#000000">Velocity</text>
</g>
<!-- Volume&#45;&gt;Velocity -->
<g id="edge1" class="edge">
<title>Volume&#45;&gt;Velocity</title>
<path fill="none" stroke="#000000" d="M100.6261,-34C108.7771,-34 117.4187,-34 125.8916,-34"/>
<polygon fill="#000000" stroke="#000000" points="126.0988,-37.5001 136.0987,-34 126.0987,-30.5001 126.0988,-37.5001"/>
</g>
<!-- Variety -->
<g id="node3" class="node">
<title>Variety</title>
<ellipse fill="none" stroke="#000000" cx="300.865" cy="-34" rx="39.9838" ry="18"/>
<text text-anchor="middle" x="300.865" y="-29.8" font-family="Times,serif" font-size="14.00" fill="#000000">Variety</text>
</g>
<!-- Velocity&#45;&gt;Variety -->
<g id="edge2" class="edge">
<title>Velocity&#45;&gt;Variety</title>
<path fill="none" stroke="#000000" d="M225.0304,-34C233.3087,-34 242.0136,-34 250.4558,-34"/>
<polygon fill="#000000" stroke="#000000" points="250.5766,-37.5001 260.5766,-34 250.5766,-30.5001 250.5766,-37.5001"/>
</g>
<!-- Veracity -->
<g id="node4" class="node">
<title>Veracity</title>
<ellipse fill="none" stroke="#000000" cx="421.1355" cy="-34" rx="44.0583" ry="18"/>
<text text-anchor="middle" x="421.1355" y="-29.8" font-family="Times,serif" font-size="14.00" fill="#000000">Veracity</text>
</g>
<!-- Variety&#45;&gt;Veracity -->
<g id="edge3" class="edge">
<title>Variety&#45;&gt;Veracity</title>
<path fill="none" stroke="#000000" d="M340.9133,-34C349.1646,-34 357.9859,-34 366.6494,-34"/>
<polygon fill="#000000" stroke="#000000" points="366.7036,-37.5001 376.7036,-34 366.7035,-30.5001 366.7036,-37.5001"/>
</g>
<!-- Value -->
<g id="node5" class="node">
<title>Value</title>
<ellipse fill="none" stroke="#000000" cx="535.5075" cy="-34" rx="34.1871" ry="18"/>
<text text-anchor="middle" x="535.5075" y="-29.8" font-family="Times,serif" font-size="14.00" fill="#000000">Value</text>
</g>
<!-- Veracity&#45;&gt;Value -->
<g id="edge4" class="edge">
<title>Veracity&#45;&gt;Value</title>
<path fill="none" stroke="#000000" d="M465.6822,-34C473.9733,-34 482.6375,-34 490.9295,-34"/>
<polygon fill="#000000" stroke="#000000" points="491.1777,-37.5001 501.1776,-34 491.1776,-30.5001 491.1777,-37.5001"/>
</g>
</g>
</svg>
