<?xml version="1.0" encoding="UTF-8" standalone="no"?>
<!DOCTYPE svg PUBLIC "-//W3C//DTD SVG 1.1//EN"
 "http://www.w3.org/Graphics/SVG/1.1/DTD/svg11.dtd">
<!-- Generated by graphviz version 2.38.0 (20140413.2041)
 -->
<!-- Title: %3 Pages: 1 -->
<svg width="549pt" height="98pt"
 viewBox="0.00 0.00 548.98 98.00" xmlns="http://www.w3.org/2000/svg" xmlns:xlink="http://www.w3.org/1999/xlink">
<g id="graph0" class="graph" transform="scale(1 1) rotate(0) translate(4 94)">
<title>%3</title>
<polygon fill="white" stroke="none" points="-4,4 -4,-94 544.982,-94 544.982,4 -4,4"/>
<g id="clust1" class="cluster"><title>clusterd</title>
<polygon fill="none" stroke="black" points="8,-8 8,-82 532.982,-82 532.982,-8 8,-8"/>
<text text-anchor="middle" x="270.491" y="-66.8" font-family="Times,serif" font-size="14.00">Big Data</text>
</g>
<!-- Volume -->
<g id="node1" class="node"><title>Volume</title>
<ellipse fill="none" stroke="black" cx="53.4577" cy="-34" rx="37.4154" ry="18"/>
<text text-anchor="middle" x="53.4577" y="-29.8" font-family="Times,serif" font-size="14.00">Volume</text>
</g>
<!-- Velocity -->
<g id="node2" class="node"><title>Velocity</title>
<ellipse fill="none" stroke="black" cx="166.493" cy="-34" rx="39.6558" ry="18"/>
<text text-anchor="middle" x="166.493" y="-29.8" font-family="Times,serif" font-size="14.00">Velocity</text>
</g>
<!-- Volume&#45;&gt;Velocity -->
<g id="edge1" class="edge"><title>Volume&#45;&gt;Velocity</title>
<path fill="none" stroke="black" d="M91.1226,-34C99.2061,-34 107.895,-34 116.381,-34"/>
<polygon fill="black" stroke="black" points="116.578,-37.5001 126.578,-34 116.578,-30.5001 116.578,-37.5001"/>
</g>
<!-- Variety -->
<g id="node3" class="node"><title>Variety</title>
<ellipse fill="none" stroke="black" cx="277.715" cy="-34" rx="35.7887" ry="18"/>
<text text-anchor="middle" x="277.715" y="-29.8" font-family="Times,serif" font-size="14.00">Variety</text>
</g>
<!-- Velocity&#45;&gt;Variety -->
<g id="edge2" class="edge"><title>Velocity&#45;&gt;Variety</title>
<path fill="none" stroke="black" d="M206.308,-34C214.591,-34 223.403,-34 231.89,-34"/>
<polygon fill="black" stroke="black" points="232.023,-37.5001 242.023,-34 232.023,-30.5001 232.023,-37.5001"/>
</g>
<!-- Veracity -->
<g id="node4" class="node"><title>Veracity</title>
<ellipse fill="none" stroke="black" cx="388.928" cy="-34" rx="39.6385" ry="18"/>
<text text-anchor="middle" x="388.928" y="-29.8" font-family="Times,serif" font-size="14.00">Veracity</text>
</g>
<!-- Variety&#45;&gt;Veracity -->
<g id="edge3" class="edge"><title>Variety&#45;&gt;Veracity</title>
<path fill="none" stroke="black" d="M313.571,-34C321.737,-34 330.584,-34 339.231,-34"/>
<polygon fill="black" stroke="black" points="339.238,-37.5001 349.238,-34 339.238,-30.5001 339.238,-37.5001"/>
</g>
<!-- Value -->
<g id="node5" class="node"><title>Value</title>
<ellipse fill="none" stroke="black" cx="494.74" cy="-34" rx="30.4862" ry="18"/>
<text text-anchor="middle" x="494.74" y="-29.8" font-family="Times,serif" font-size="14.00">Value</text>
</g>
<!-- Veracity&#45;&gt;Value -->
<g id="edge4" class="edge"><title>Veracity&#45;&gt;Value</title>
<path fill="none" stroke="black" d="M428.584,-34C437.026,-34 445.97,-34 454.437,-34"/>
<polygon fill="black" stroke="black" points="454.464,-37.5001 464.464,-34 454.464,-30.5001 454.464,-37.5001"/>
</g>
</g>
</svg>
